<?xml version="1.0" standalone="no"?>
<!DOCTYPE svg PUBLIC "-//W3C//DTD SVG 20010904//EN"
 "http://www.w3.org/TR/2001/REC-SVG-20010904/DTD/svg10.dtd">
<svg version="1.0" xmlns="http://www.w3.org/2000/svg"
 width="1280.000000pt" height="1280.000000pt" viewBox="0 0 1280.000000 1280.000000"
 preserveAspectRatio="xMidYMid meet">
<metadata>
Created by potrace 1.15, written by Peter Selinger 2001-2017
</metadata>
<g transform="translate(0.000000,1280.000000) scale(0.100000,-0.100000)"
fill="#000000" stroke="none">
<path d="M6000 10973 c-466 -15 -942 -145 -1308 -359 -201 -117 -349 -230
-510 -388 l-92 -91 -228 -1 c-322 -1 -584 -38 -897 -129 -843 -244 -1601 -777
-2081 -1461 -326 -466 -523 -978 -605 -1579 -30 -218 -37 -685 -14 -925 115
-1219 740 -2251 1730 -2857 555 -340 1131 -510 1800 -530 730 -22 1413 159
1959 517 588 386 1001 937 1271 1695 59 166 112 365 284 1080 292 1206 520
1932 749 2380 88 171 331 548 332 513 0 -2 7 -55 15 -119 54 -433 44 -1083
-30 -2054 -60 -774 -69 -973 -69 -1525 -1 -435 2 -555 17 -700 88 -861 282
-1365 687 -1784 128 -132 212 -202 356 -296 234 -152 478 -244 704 -265 131
-12 157 -12 273 -4 205 15 373 66 526 160 92 57 219 172 287 260 l43 57 -91
75 -91 76 -76 -71 c-214 -200 -322 -259 -500 -274 -162 -14 -353 33 -504 123
-102 60 -253 208 -326 318 -259 389 -401 1035 -401 1821 l0 182 95 206 c214
464 248 563 515 1481 359 1236 580 1808 923 2380 332 556 627 873 845 910 59
10 111 -18 192 -101 122 -126 232 -177 385 -177 112 1 182 29 256 102 30 31
69 83 85 116 27 56 29 68 29 175 0 105 -2 119 -27 166 -52 98 -171 188 -291
220 -187 49 -402 14 -628 -103 -149 -77 -261 -163 -435 -337 -181 -180 -322
-356 -489 -606 -427 -641 -697 -1305 -1144 -2805 -72 -244 -259 -811 -294
-893 -12 -30 -14 -10 -20 220 -4 139 -11 523 -17 853 -16 1034 -27 1256 -81
1650 -49 359 -143 684 -268 922 l-39 74 95 71 c292 217 494 306 970 429 109
28 199 52 200 53 3 2 -48 230 -52 235 -7 7 -231 -48 -400 -99 -349 -105 -657
-254 -920 -445 -20 -14 -23 -10 -72 63 -236 357 -542 674 -863 894 -518 355
-1103 522 -1760 501z m450 -273 c526 -69 1016 -300 1388 -654 208 -198 323
-390 445 -743 l46 -133 -46 -52 c-461 -520 -699 -1048 -1208 -2688 -122 -393
-386 -1193 -447 -1355 -144 -381 -312 -745 -443 -960 -483 -795 -1282 -1215
-2310 -1215 -794 0 -1534 266 -2139 768 -604 503 -1027 1261 -1140 2042 -42
290 -47 732 -11 1000 137 1038 640 1909 1453 2517 453 339 963 552 1508 627
120 17 334 32 334 24 0 -3 -29 -54 -65 -114 -103 -171 -277 -528 -317 -649
-71 -213 -99 -409 -99 -695 0 -271 30 -475 106 -710 151 -467 416 -826 790
-1073 116 -76 343 -187 466 -227 371 -120 807 -117 1164 10 50 18 144 56 209
86 65 30 120 54 122 54 9 0 -106 -263 -166 -378 -384 -741 -1107 -1281 -1843
-1378 -243 -32 -546 -6 -765 65 -398 130 -756 445 -952 836 -135 270 -187 527
-177 869 5 190 20 291 64 436 24 83 25 85 7 118 -9 18 -27 35 -38 37 -128 30
-160 35 -167 28 -23 -24 -91 -324 -110 -488 -15 -126 -6 -428 16 -550 101
-557 376 -1000 795 -1280 340 -227 698 -337 1145 -352 529 -17 991 106 1400
374 562 369 971 1013 1145 1805 l28 128 89 102 c283 326 424 557 561 923 70
186 132 376 132 403 0 42 -36 68 -125 91 -47 13 -88 22 -89 20 -2 -2 -18 -53
-36 -114 -112 -375 -242 -652 -417 -886 l-68 -91 -6 193 c-15 450 -141 893
-376 1313 -270 484 -602 803 -1078 1037 -235 115 -456 190 -706 241 -127 26
-128 18 20 132 194 149 429 286 617 360 184 73 453 133 689 155 123 12 489 6
605 -9z m-2065 -854 c833 -189 1427 -609 1724 -1220 148 -304 241 -607 283
-926 19 -143 16 -473 -5 -595 -31 -177 -19 -159 -174 -252 -239 -142 -407
-213 -586 -249 -113 -22 -380 -30 -503 -14 -355 44 -659 197 -927 465 -392
390 -575 858 -554 1420 16 424 144 803 408 1205 103 158 137 200 162 200 12 0
90 -15 172 -34z"/>
</g>
</svg>
